<svg xmlns="http://www.w3.org/2000/svg" height="272" viewBox="0 0 230 272" width="230"><g fill="#090b0d" fill-rule="evenodd"><path d="m55.041157 52.8454917c.07422 0 .1484401.00782.2187501.02344 4.3867.2695 6.2851 3.8086 7.332 6.4609.8398 2.1289 2.2734 4.53519 3.57832 5.10169 4.0742 1.7736 6.5195201 6.0587001 5.9414 10.4220001-.5235 3.9726-3.418 6.82811-7.5547 7.4492-.47654.07422-.96482.10938-1.4531.10938-1.3398 0-2.7031-.27344-3.9453-.79688-.5508-.23437-1.05861-.5039-1.5508-.76953-.9063-.48441-1.76177-.94535-2.7188001-1.0391-.9532.09379-1.81255.55082-2.7188 1.0391-.4922.26562-1.00002.53906-1.5508.76953-1.6914.71485-3.6132.96094-5.3984.69141-4.1367-.6172-7.03126-3.4726-7.5547001-7.4492-.5742-4.3674 1.8672001-8.6526001 5.9414001-10.4260001 1.3047-.5664 2.73826-2.9727 3.5781-5.1016 1.0468-2.6562 2.9453-6.19528 7.3359-6.4609.07031-.01562.14062-.02344.21484-.02344.02344 0 .12891.00391.14844.00391zm22.6014702-7.0459001c.32813 0 .66016.03125.98438.08984 1.5469.2774 2.88284 1.1836 3.8594 2.6172 1.37105 2.0078001 1.83199 4.7695001 1.2734 7.5703001-.8985 4.4883-4.125 7.75-7.6719 7.75-.32813 0-.66016-.03125-.98438-.08984-1.5508-.2813-2.8828401-1.1836-3.8594001-2.6172-1.37106-2.0078-1.83199-4.7695-1.2734-7.5703.8985-4.4883001 4.1250001-7.7500001 7.6719001-7.7500001zm-45.7575203-.00016c3.5469 0 6.7734601 3.2578 7.6719001 7.7500001.56249 2.8008.09769 5.5625-1.26951 7.5664-.9766001 1.4336-2.3086001 2.33595-3.8594001 2.6172-.32421.05859-.65625.08984-.98437.08984-3.5469 0-6.77346-3.2578-7.6719-7.75-.5586-2.8008-.0938-5.5586 1.2734-7.5703001.9727-1.4297 2.3047-2.33596 3.8555-2.6133.32422-.05859.65626-.08984.98438-.08984zm12.4416001-16.0078301c3.8789-.3281 7.34372 3.6836001 7.7695 8.8555001.2032 2.4609-.2968 4.8398-1.4023 6.7031-1.1719 1.9727-2.8828 3.14454-4.8164 3.3047-.14453.01172-.29297.0197-.4375.0197-3.7032 0-6.92194-3.8984-7.3321-8.875-.4257001-5.1994 2.3633-9.6915901 6.2188-10.0080001zm13.1055001 8.8548601c.4218-5.1719 3.875-9.1836201 7.7695-8.8555001 3.8594.3166 6.64849 4.8088001 6.2188 10.0080001-.4101 4.9766-3.6328 8.875-7.332 8.875-.14453 0-.28906-.00781-.4375-.01953-1.9337-.15647-3.6446-1.33217-4.8165-3.30487-1.10542-1.8633-1.60542-4.2461-1.4023-6.7031z" transform="matrix(.66913061 -.74314483 .74314483 .66913061 -23.564829 59.258526)"></path><path d="m171.317237-14.5864733c0-1.1884124-.961619-2.1499998-2.15-2.1499998-1.18838 0-2.149999.9616196-2.149999 2.1499998v6.44161448c-.655084-.172172-1.322788-.3233384-2.011433-.4115207v-.5542914c0-7.70140698-5.135597-13.36654898-14.142699-15.71757378v-7.8860918c0-1.1884124-.961619-2.1499999-2.149999-2.1499999-1.188381 0-2.15.9616197-2.15 2.1499999v7.0042694c-5.093672-.7978542-10.225077-.7894585-15.310149.025198v-7.0421094c0-1.1884124-.96162-2.1499999-2.15-2.1499999-1.188412 0-2.15.9616197-2.15 2.1499999v7.9365093c-8.914974 2.3809098-13.987899 8.0246593-13.987899 15.68424878v.5458957c-.743265.096578-1.461354.2603542-2.170962.4535209v-6.49203198c0-1.1884124-.96162-2.1499998-2.15-2.1499998-1.188412 0-2.15.9616196-2.15 2.1499998v8.37747439c-4.543594 2.85541472-7.5754164 7.90716185-7.5754164 13.66002388l2.8591874 287.83223253c0 1.188413.961619 2.15 2.149999 2.15 1.188381 0 2.15-.961619 2.15-2.15l-2.854994-287.82793253c0-5.79908703 4.194972-10.62400916 9.746379-11.63149906v.2897447c0 1.1884124.96162 2.14999981 2.15 2.14999981s2.15-.96161961 2.15-2.14999981v-5.20278453c0-7.68452948 6.655754-10.69958168 12.261449-11.87982408.004203 0 .012599-.0042033.016802-.0042033s.004203 0 .008396-.0041925c2.380909-.5123019 4.770312-.8230414 7.168099-.9448281v4.8837246c0 1.1884124.96162 2.1499998 2.15 2.1499998s2.15-.9616197 2.15-2.1499998v-4.8921096c2.29276.1049737 4.585519.3905259 6.865702.8566459.243552.1007812.508109.1553697.785255.159573 5.547214 1.2093749 12.034624 4.2453896 12.034624 11.82929908v2.33898481c-.025198.1301717-.04199.2645467-.04199.3989217v2.64127472c0 1.18841241.96162 2.14999991 2.15 2.14999991s2.15-.9616197 2.15-2.14999991v-.4787082c5.551407.9742187 9.788412 5.82015703 9.788412 11.64869906l-1.63623 223.58267533c0 1.188413.96162 2.15 2.15 2.15s2.15-.96162 2.15-2.15l1.632026-223.59127533c0-5.81166453-3.094817-10.90587406-7.734947-13.74817388z" stroke="#090b0d" stroke-width="2" transform="matrix(.66913061 -.74314483 .74314483 .66913061 -51.568225 146.719871)"></path></g></svg>